<?xml version="1.0" encoding="utf-8"?>
<svg xmlns="http://www.w3.org/2000/svg" viewBox="65 78 198 85">
  <path fill="#FFFFFF" d="M120.76,136.18c3.75,3.75,6.8,8.16,8.95,13.06h-24.3c-3.92,0-7.69-1.56-10.46-4.34l-19.58-19.6c-0.96-0.96-0.96-2.52,0-3.48l19.58-19.6c2.77-2.78,6.54-4.34,10.46-4.34h24.3c-6.1,13.83-19.26,23.82-34.91,25.45c-0.3,0.03-0.3,0.43,0,0.46C104.89,124.84,113.97,129.38,120.76,136.18z M204.54,136.18c-3.75,3.75-6.8,8.16-8.95,13.06h24.3c3.92,0,7.69-1.56,10.46-4.34l19.58-19.6c0.96-0.96,0.96-2.52,0-3.48l-19.58-19.6c-2.77-2.78-6.54-4.34-10.46-4.34h-24.3c6.1,13.83,19.26,23.82,34.91,25.45c0.3,0.03,0.3,0.43,0,0.46C220.42,124.84,211.34,129.38,204.54,136.18z M199.75,123.32c-19.37-2.07-34.77-17.47-36.84-36.88c-0.03-0.3-0.44-0.3-0.47,0c-2.07,19.41-17.5,34.81-36.88,36.88c-0.3,0.03-0.3,0.44,0,0.47c19.38,2.07,34.81,17.47,36.88,36.88c0.03,0.3,0.44,0.3,0.47,0c2.07-19.4,17.47-34.81,36.84-36.88C200.05,123.76,200.05,123.35,199.75,123.32z"/>
</svg>
