<?xml version="1.0" encoding="utf-8"?>
<svg version="1.1" id="Layer_1" xmlns="http://www.w3.org/2000/svg" xmlns:xlink="http://www.w3.org/1999/xlink" x="0px" y="0px"
	 viewBox="0 0 765.77 234.95" style="enable-background:new 0 0 765.77 234.95;" xml:space="preserve">
<style type="text/css">
	.st0{fill:#FFFFFF;}
</style>
<path class="st0" d="M289.27,150.62c-6.02,0-11.11-1.4-15.26-4.2s-6.61-7.15-7.37-13.03h7.58c0.55,3.39,2.16,6.06,4.83,7.99
	c2.66,1.94,6.14,2.91,10.43,2.91c3.88,0,6.89-0.86,9.03-2.59c2.14-1.73,3.22-3.95,3.22-6.65c0-2.01-0.62-3.51-1.87-4.52
	c-1.25-1-3.6-1.85-7.06-2.54c-1.45-0.35-2.89-0.64-4.31-0.88c-1.42-0.24-2.86-0.5-4.31-0.78c-2.15-0.42-4.36-1.14-6.65-2.18
	c-2.28-1.04-4.21-2.54-5.76-4.52s-2.33-4.55-2.33-7.74c0-4.36,1.68-7.99,5.04-10.9c3.35-2.91,7.8-4.36,13.34-4.36
	c5.26,0,9.71,1.21,13.34,3.63s5.73,6.44,6.28,12.04h-7.37c-0.28-3.39-1.56-5.8-3.84-7.22s-5.16-2.13-8.62-2.13
	c-3.12,0-5.73,0.75-7.84,2.23c-2.11,1.49-3.17,3.44-3.17,5.87c0,4.43,3.04,7.23,9.14,8.41c0.9,0.14,1.78,0.3,2.65,0.47
	s1.73,0.35,2.6,0.52c0.86,0.17,1.71,0.33,2.54,0.47c1.45,0.21,3.04,0.55,4.77,1.04c1.73,0.49,3.41,1.21,5.04,2.18s2.96,2.27,4,3.89
	c1.04,1.63,1.56,3.76,1.56,6.39c0,3.11-0.81,5.88-2.44,8.31c-1.63,2.42-3.91,4.34-6.85,5.76
	C296.66,149.91,293.21,150.62,289.27,150.62z M316.99,149.37v-51.5h7.27v7.48c1.66-2.77,3.88-4.91,6.65-6.44
	c2.77-1.52,5.85-2.28,9.24-2.28c4.08,0,7.63,0.85,10.64,2.54c3.01,1.7,5.28,4.31,6.8,7.84c1.73-3.25,4.19-5.8,7.37-7.63
	c3.18-1.83,6.58-2.75,10.18-2.75c5.95,0,10.8,1.8,14.54,5.4c3.74,3.6,5.61,9.24,5.61,16.92v30.42h-7.27v-29.59
	c0-5.67-1.14-9.9-3.43-12.67c-2.28-2.77-5.5-4.15-9.65-4.15c-4.29,0-7.89,1.7-10.8,5.09c-2.91,3.39-4.36,8.27-4.36,14.64v26.68
	h-7.27v-29.59c0-5.67-1.14-9.9-3.43-12.67c-2.28-2.77-5.5-4.15-9.66-4.15c-4.29,0-7.89,1.7-10.8,5.09
	c-2.91,3.39-4.36,8.27-4.36,14.64v26.68H316.99z M405.24,172.21V97.87h7.27v8.93c1.66-2.63,4.1-4.98,7.32-7.06
	c3.22-2.08,7.25-3.11,12.1-3.11c5.19,0,9.69,1.18,13.5,3.53s6.77,5.57,8.88,9.66c2.11,4.09,3.17,8.72,3.17,13.91
	s-1.06,9.81-3.17,13.86c-2.11,4.05-5.07,7.23-8.88,9.55s-8.34,3.48-13.6,3.48c-4.36,0-8.22-0.92-11.58-2.75s-5.94-4.38-7.73-7.63
	v31.98L405.24,172.21L405.24,172.21z M431.51,144.28c3.67,0,6.89-0.86,9.66-2.59s4.95-4.14,6.54-7.22s2.39-6.7,2.39-10.85
	s-0.8-7.79-2.39-10.9c-1.59-3.11-3.77-5.52-6.54-7.22c-2.77-1.7-5.99-2.54-9.66-2.54c-3.6,0-6.8,0.85-9.6,2.54
	c-2.8,1.7-5,4.1-6.59,7.22c-1.59,3.11-2.39,6.75-2.39,10.9s0.8,7.77,2.39,10.85c1.59,3.08,3.79,5.49,6.59,7.22
	S427.91,144.28,431.51,144.28z M489.29,150.62c-6.64,0-12.15-1.56-16.51-4.67c-4.36-3.11-6.85-7.41-7.48-12.87h12.77
	c0.48,2.42,1.78,4.34,3.89,5.76c2.11,1.42,4.69,2.13,7.73,2.13c3.12,0,5.52-0.61,7.22-1.82s2.54-2.72,2.54-4.52
	c0-1.45-0.57-2.58-1.71-3.37c-1.14-0.8-3.16-1.4-6.07-1.82c-1.11-0.21-2.48-0.43-4.1-0.67c-1.63-0.24-3.03-0.5-4.21-0.78
	c-2.7-0.48-5.23-1.33-7.58-2.54c-2.35-1.21-4.24-2.85-5.66-4.93s-2.13-4.64-2.13-7.68c0-4.57,1.71-8.41,5.14-11.52
	c3.43-3.12,8.32-4.67,14.69-4.67s11.45,1.4,15.26,4.2c3.81,2.8,5.99,6.9,6.54,12.3h-12.15c-0.21-2.28-1.23-3.98-3.06-5.09
	c-1.83-1.11-4.03-1.66-6.59-1.66c-2.77,0-4.92,0.54-6.44,1.61s-2.28,2.41-2.28,4c0,2.84,2.39,4.67,7.16,5.5
	c0.69,0.14,1.57,0.3,2.65,0.47c1.07,0.17,2.16,0.35,3.27,0.52s2.04,0.33,2.8,0.47c1.87,0.21,3.75,0.62,5.66,1.25
	c1.9,0.62,3.65,1.47,5.24,2.54s2.85,2.48,3.79,4.2c0.93,1.73,1.4,3.91,1.4,6.54c0,3.39-0.85,6.37-2.54,8.93
	c-1.7,2.56-4.17,4.57-7.42,6.02C497.88,149.89,493.93,150.62,489.29,150.62z M534.15,150.62c-3.95,0-7.3-0.71-10.07-2.13
	s-4.88-3.3-6.33-5.66c-1.45-2.35-2.18-4.91-2.18-7.68c0-5.4,1.96-9.59,5.87-12.56c3.91-2.98,9.05-4.46,15.42-4.46
	c2.91,0,5.49,0.23,7.74,0.67c2.25,0.45,4.06,0.88,5.45,1.3v-2.39c0-3.81-1.06-6.61-3.17-8.41c-2.11-1.8-4.86-2.7-8.25-2.7
	c-2.49,0-4.71,0.5-6.65,1.51c-1.94,1-3.18,2.82-3.74,5.45H516.4c0.41-3.74,1.66-6.85,3.74-9.34s4.72-4.38,7.94-5.66
	c3.22-1.28,6.73-1.92,10.54-1.92c7.54,0,13.41,1.85,17.6,5.55c4.19,3.7,6.28,8.88,6.28,15.52v12.56c0,2.63,0.16,4.55,0.47,5.76
	c0.31,1.21,0.83,1.97,1.56,2.28s1.68,0.47,2.85,0.47h0.52v10.59h-2.8c-3.53,0-6.49-0.5-8.88-1.51c-2.39-1-4.07-2.99-5.04-5.97
	c-1.73,2.49-4.02,4.57-6.85,6.23C541.48,149.79,538.09,150.62,534.15,150.62z M536.84,140.96c2.42,0,4.5-0.57,6.23-1.71
	s3.13-2.66,4.2-4.57c1.07-1.9,1.78-4,2.13-6.28c-1.45-0.41-3.19-0.83-5.19-1.25c-2.01-0.42-4.05-0.62-6.13-0.62
	c-3.12,0-5.56,0.69-7.32,2.08c-1.77,1.39-2.65,3.25-2.65,5.61c0,1.94,0.78,3.55,2.33,4.83
	C532.02,140.32,534.15,140.96,536.84,140.96z M573.5,149.37V74.62h12.46v74.75H573.5z M618.76,150.62c-5.19,0-9.78-1.13-13.76-3.37
	c-3.98-2.25-7.09-5.38-9.34-9.4c-2.25-4.01-3.37-8.65-3.37-13.91c0-5.33,1.11-10.05,3.32-14.17c2.21-4.12,5.33-7.34,9.34-9.66
	c4.01-2.32,8.65-3.48,13.91-3.48c5.05,0,9.5,1.11,13.34,3.32c3.84,2.22,6.82,5.21,8.93,8.98s3.17,8.01,3.17,12.72
	c0,0.69,0,1.45,0,2.28s-0.07,1.73-0.21,2.7h-42.78v-8.1h30.42c-0.21-3.6-1.52-6.45-3.95-8.56s-5.4-3.17-8.93-3.17
	c-2.56,0-4.93,0.57-7.11,1.71s-3.93,2.84-5.24,5.09s-1.97,5.11-1.97,8.56v3.01c0,3.18,0.64,5.92,1.92,8.2
	c1.28,2.28,2.99,4.01,5.14,5.19c2.14,1.18,4.53,1.77,7.17,1.77c2.84,0,5.23-0.64,7.16-1.92s3.36-2.99,4.26-5.14h12.67
	c-0.9,3.32-2.48,6.28-4.72,8.88c-2.25,2.59-5,4.66-8.26,6.18C626.62,149.86,622.92,150.62,618.76,150.62z M669.32,150.62
	c-6.64,0-12.15-1.56-16.51-4.67s-6.85-7.41-7.48-12.87h12.77c0.48,2.42,1.78,4.34,3.89,5.76s4.69,2.13,7.73,2.13
	c3.12,0,5.52-0.61,7.22-1.82c1.7-1.21,2.54-2.72,2.54-4.52c0-1.45-0.57-2.58-1.71-3.37c-1.14-0.8-3.16-1.4-6.07-1.82
	c-1.11-0.21-2.48-0.43-4.1-0.67c-1.63-0.24-3.03-0.5-4.21-0.78c-2.7-0.48-5.23-1.33-7.58-2.54c-2.35-1.21-4.24-2.85-5.66-4.93
	s-2.13-4.64-2.13-7.68c0-4.57,1.71-8.41,5.14-11.52c3.43-3.12,8.32-4.67,14.69-4.67s11.45,1.4,15.26,4.2
	c3.81,2.8,5.99,6.9,6.54,12.3H677.5c-0.21-2.28-1.23-3.98-3.06-5.09c-1.83-1.11-4.03-1.66-6.59-1.66c-2.77,0-4.92,0.54-6.44,1.61
	s-2.28,2.41-2.28,4c0,2.84,2.39,4.67,7.16,5.5c0.69,0.14,1.57,0.3,2.65,0.47c1.07,0.17,2.16,0.35,3.27,0.52
	c1.11,0.17,2.04,0.33,2.8,0.47c1.87,0.21,3.75,0.62,5.66,1.25c1.9,0.62,3.65,1.47,5.24,2.54c1.59,1.07,2.85,2.48,3.79,4.2
	c0.93,1.73,1.4,3.91,1.4,6.54c0,3.39-0.85,6.37-2.54,8.93c-1.7,2.56-4.17,4.57-7.42,6.02C677.91,149.89,673.96,150.62,669.32,150.62
	z M120.76,136.18c3.75,3.75,6.8,8.16,8.95,13.06h-24.3c-3.92,0-7.69-1.56-10.46-4.34l-19.58-19.6c-0.96-0.96-0.96-2.52,0-3.48
	l19.58-19.6c2.77-2.78,6.54-4.34,10.46-4.34h24.3c-6.1,13.83-19.26,23.82-34.91,25.45c-0.3,0.03-0.3,0.43,0,0.46
	C104.89,124.84,113.97,129.38,120.76,136.18z M204.54,136.18c-3.75,3.75-6.8,8.16-8.95,13.06h24.3c3.92,0,7.69-1.56,10.46-4.34
	l19.58-19.6c0.96-0.96,0.96-2.52,0-3.48l-19.58-19.6c-2.77-2.78-6.54-4.34-10.46-4.34h-24.3c6.1,13.83,19.26,23.82,34.91,25.45
	c0.3,0.03,0.3,0.43,0,0.46C220.42,124.84,211.34,129.38,204.54,136.18z M199.75,123.32c-19.37-2.07-34.77-17.47-36.84-36.88
	c-0.03-0.3-0.44-0.3-0.47,0c-2.07,19.41-17.5,34.81-36.88,36.88c-0.3,0.03-0.3,0.44,0,0.47c19.38,2.07,34.81,17.47,36.88,36.88
	c0.03,0.3,0.44,0.3,0.47,0c2.07-19.4,17.47-34.81,36.84-36.88C200.05,123.76,200.05,123.35,199.75,123.32z"/>
</svg>
